<?xml version="1.0" encoding="utf-8"?>
<!-- Generator: Adobe Illustrator 25.0.0, SVG Export Plug-In . SVG Version: 6.00 Build 0)  -->
<svg version="1.1" id="Layer_1" xmlns="http://www.w3.org/2000/svg" xmlns:xlink="http://www.w3.org/1999/xlink" x="0px" y="0px"
	 viewBox="0 0 64 64" style="enable-background:new 0 0 64 64;" xml:space="preserve">
<style type="text/css">
	.st0{fill:none;stroke:#231F20;stroke-miterlimit:10;}
	.st1{fill:#231F20;}
	.st2{fill:#231F20;stroke:#231F20;stroke-miterlimit:10;}
</style>
<g>
	<rect x="2" y="0" class="st1" width="3" height="64"/>
</g>
<g>
	<line class="st1" x1="0" y1="60.5" x2="64" y2="60.5"/>
	<rect x="0" y="59" class="st1" width="64" height="3"/>
</g>
<g>
	<rect x="13.5" y="34.5" class="st1" width="6" height="24"/>
	<path class="st1" d="M20,59h-7V34h7V59z M14,58h5V35h-5V58z"/>
</g>
<g>
	<rect x="31.5" y="24.5" class="st1" width="6" height="34"/>
	<path class="st1" d="M38,59h-7V24h7V59z M32,58h5V25h-5V58z"/>
</g>
<g>
	<rect x="49.5" y="14.5" class="st1" width="6" height="44"/>
	<path class="st1" d="M56,59h-7V14h7V59z M50,58h5V15h-5V58z"/>
</g>
</svg>
