<?xml version="1.0" encoding="utf-8"?>
<!-- Generator: Adobe Illustrator 25.0.0, SVG Export Plug-In . SVG Version: 6.00 Build 0)  -->
<svg version="1.1" id="Layer_1" xmlns="http://www.w3.org/2000/svg" xmlns:xlink="http://www.w3.org/1999/xlink" x="0px" y="0px"
	 viewBox="0 0 64 64" style="enable-background:new 0 0 64 64;" xml:space="preserve">
<style type="text/css">
	.st0{fill:none;stroke:#231F20;stroke-miterlimit:10;}
	.st1{fill:#231F20;}
	.st2{fill:#231F20;stroke:#231F20;stroke-miterlimit:10;}
</style>
<g>
	<rect x="0" y="59" class="st1" width="64" height="3"/>
</g>
<g>
	<rect x="2" class="st1" width="3" height="64"/>
</g>
<g>
	<path class="st1" d="M24.23,11v4c2.53,8.25,6.33,10.5,6.54,18c0.21,7.5-5.7,12.75-6.54,19v4"/>
	<path class="st1" d="M25.45,56H23l0.02-4.24c0.41-3.01,1.84-5.75,3.22-8.4c1.68-3.21,3.41-6.53,3.3-10.31
		c-0.11-4.01-1.35-6.36-2.92-9.33c-1.15-2.18-2.46-4.66-3.54-8.2L23,15.27V11h2.45v3.72c0.98,3.1,2.12,5.27,3.23,7.37
		c1.63,3.1,3.18,6.02,3.31,10.85c0.13,4.71-1.9,8.6-3.69,12.03c-1.29,2.46-2.5,4.79-2.85,7.15V56z"/>
</g>
<g>
	<path class="st1" d="M24.77,11v4c-2.53,8.25-6.33,10.5-6.54,18c-0.21,7.5,5.7,12.75,6.54,19v4"/>
	<path class="st1" d="M26,56h-2.45v-3.87c-0.35-2.37-1.56-4.69-2.85-7.15c-1.79-3.43-3.82-7.31-3.69-12.03
		c0.14-4.83,1.68-7.76,3.31-10.85c1.11-2.1,2.25-4.27,3.23-7.37V11H26v4.27l-0.08,0.25c-1.09,3.54-2.39,6.01-3.54,8.2
		c-1.57,2.97-2.81,5.32-2.92,9.33c-0.11,3.78,1.63,7.1,3.3,10.31c1.38,2.65,2.81,5.38,3.22,8.4L26,52V56z"/>
</g>
<g>
	<path class="st1" d="M49.23,2v4c2.53,8.25,6.33,10.5,6.54,18s-5.7,12.75-6.54,19v4"/>
	<path class="st1" d="M50.45,47H48l0.02-4.24c0.41-3.01,1.84-5.75,3.22-8.4c1.68-3.21,3.41-6.53,3.3-10.31
		c-0.11-4.01-1.35-6.36-2.92-9.33c-1.15-2.18-2.46-4.66-3.54-8.2L48,6.27V2h2.45v3.72c0.98,3.1,2.12,5.27,3.23,7.37
		c1.63,3.1,3.18,6.02,3.31,10.85c0.13,4.71-1.9,8.6-3.69,12.03c-1.29,2.46-2.5,4.79-2.85,7.15V47z"/>
</g>
<g>
	<path class="st1" d="M49.77,2v4c-2.53,8.25-6.33,10.5-6.54,18s5.7,12.75,6.54,19v4"/>
	<path class="st1" d="M51,47h-2.45v-3.87c-0.35-2.37-1.56-4.69-2.85-7.15c-1.79-3.43-3.82-7.31-3.69-12.03
		c0.14-4.83,1.68-7.76,3.31-10.85c1.11-2.1,2.25-4.27,3.23-7.37V2H51v4.27l-0.08,0.25c-1.09,3.54-2.39,6.01-3.54,8.2
		c-1.57,2.97-2.81,5.32-2.92,9.33c-0.11,3.78,1.63,7.1,3.3,10.31c1.38,2.65,2.81,5.38,3.22,8.4L51,43V47z"/>
</g>
</svg>
